# xmcd
#
# Track frame offsets:
#	150
#	17179
#	30844
#	44589
#	60438
#	72827
#	88224
#	104812
#	122626
#	140434
#	154426
#	170497
#	183725
#	198712
#	214240
#	229541
#	246656
#	261923
#	288107
#	305059
#	318044
#	334338
#
# Disc length: 4673 seconds
#
# Revision: 0
# Processed by: cddbd v1.5.1PL0 Copyright (c) Steve Scherf et al.
# Submitted via: audiograbber 1.83.01
#
DISCID=54123f16
DTITLE=Various Artist - Рекордная 20ка  №3
DYEAR=2004
DGENRE=Pop
TTITLE0=Анастасия Стоцкая - Дай Мне Пять Минут
TTITLE1=Руслана - Wild Dance
TTITLE2=Краски - Хочешь
TTITLE3=O-Zone  - Dragostea Din Tei
TTITLE4=Юля Савичева - Believe Me
TTITLE5=Smash!! - Obsession
TTITLE6=Би-2 and Brainstorm - Скользящие Улицы (Remix)
TTITLE7=Никита - Disappeared Like The Stars
TTITLE8=Монокини - Тикает (Remix)
TTITLE9=Narcotic Thrust - I Like It
TTITLE10=MC Вспышкин and Никифоровна - Хорошо
TTITLE11=Boogie Pimps - Sunny
TTITLE12=Zемфира and Браво - Как Быть
TTITLE13=A-Teens - I Promised Myself
TTITLE14=Звери - Районы-Кварталы
TTITLE15=Darren Hayes - Strange Music
TTITLE16=Руки Вверх - Хэй, Парни
TTITLE17=Benni Benassi feat. Azibiza - Turn Me Up
TTITLE18=Britney Spears - Everytime
TTITLE19=Планка - Смертный Грех
TTITLE20=Иракли - Лондон-Париж
TTITLE21=Despina Vandi - Opa Opa
EXTD=
EXTT0=
EXTT1=
EXTT2=
EXTT3=
EXTT4=
EXTT5=
EXTT6=
EXTT7=
EXTT8=
EXTT9=
EXTT10=
EXTT11=
EXTT12=
EXTT13=
EXTT14=
EXTT15=
EXTT16=
EXTT17=
EXTT18=
EXTT19=
EXTT20=
EXTT21=
PLAYORDER=
